# xmcd
#
# Track frame offsets:
#	150
#	14984
#	26335
#	38549
#	51073
#	64641
#	78890
#	92737
#	105633
#	120192
#	131627
#	143485
#	157565
#	169288
#	184670
#	198286
#	203895
#	215217
#
# Disc length: 3007 seconds
#
# Revision: 0
# Processed by: cddbd v1.5.2PL0 Copyright (c) Steve Scherf et al.
# Submitted via: EasyCDDAExtractor 16.0.6.1
#
DISCID=e80bbd12
DTITLE=Συλλογικός δίσκος - Τα 45άρια 2.3
DYEAR=2000
DGENRE=Λαϊκή
TTITLE0=Διονυσίου Στράτος - Ο παλιατζής
TTITLE1=Ζαμπέτας Γιώργος-χορωδία - Ο Γιαννάκης
TTITLE2=Παπαδοπούλου Πίτσα - Μην τού μιλάτε του παιδιού
TTITLE3=Αναγνωστάκης Πέτρος - Κατεδαφίζεται
TTITLE4=Μπιθικώτσης Γρηγόρης - Ρολόϊ, κομπολόϊ
TTITLE5=Μαρκάκης Μπάμπης-Χρηστάκης - Μαύρη κατάρα
TTITLE6=Τσαουσάκης Πρόδρομος-Κανακάρης Θεόδωρος - Φασουλάκι-φασουλάκι
TTITLE7=Μοσχολιού Βίκυ - Άλλη αγάπη έπιασες
TTITLE8=Περπινιάδης Βαγγέλης-Μάριος - Στ' Αποστόλη το κουτούκι
TTITLE9=Λύδια Γιώτα-Χατζηαντωνίου Γιώργος - Καπετάνιε μην πονάς
TTITLE10=Ρεπάνης Αντώνης - Σήκω κοπέλα μου
TTITLE11=Διονυσίου Στράτος-Μάμος Γιώργος - Κορδελάκια και καψόνια
TTITLE12=Λίντα Μαίρη - Πήρε φωτιά η φούστα μου
TTITLE13=Γκρέϋ Καίτη-Μάμος Γιώργος - Τό 'πες και τό 'κανες
TTITLE14=Γαβαλάς Πάνος-Κούρτη Ρία - Δεν πουλάω την καρδιά μου
TTITLE15=Λίντα Μαίρη-Χιώτης Μανώλης - Θεσσαλονίκη μου
TTITLE16=Λύδια Γιώτα-Καλδάρας Απόστολος - Όταν πέσεις σ' άλλα χέρια
TTITLE17=Τζανετής Πάνος - Θα φύγω πια
EXTD=
EXTT0=
EXTT1=
EXTT2=
EXTT3=
EXTT4=
EXTT5=
EXTT6=
EXTT7=
EXTT8=
EXTT9=
EXTT10=
EXTT11=
EXTT12=
EXTT13=
EXTT14=
EXTT15=
EXTT16=
EXTT17=
PLAYORDER=
